<?xml version="1.0" standalone="no"?>
<!DOCTYPE svg PUBLIC "-//W3C//DTD SVG 1.1//EN" "http://www.w3.org/Graphics/SVG/1.1/DTD/svg11.dtd" >
<!--
2013-9-30: Created.
-->
<svg>
<metadata>
Created by iconfont
</metadata>
<defs>

<font id="iconfont" horiz-adv-x="1024" >
  <font-face
    font-family="iconfont"
    font-weight="500"
    font-stretch="normal"
    units-per-em="1024"
    ascent="896"
    descent="-128"
  />
    <missing-glyph />
    
    <glyph glyph-name="VIP" unicode="&#59038;" d="M768 588.8H256a153.6 153.6 0 0 1-153.6-153.6v-102.4a153.6 153.6 0 0 1 153.6-153.6h512a153.6 153.6 0 0 1 153.6 153.6v102.4a153.6 153.6 0 0 1-153.6 153.6zM353.536 256h-2.816a25.6 25.6 0 0 0-22.016 19.712l-46.592 204.8a25.6 25.6 0 1 0 51.2 11.264L362.496 358.4l67.84 139.264a25.6 25.6 0 1 0 45.824-22.528l-99.584-204.8a25.6 25.6 0 0 0-23.04-14.336z m165.632 21.248a25.6 25.6 0 0 0-25.6-21.248 14.08 14.08 0 0 0-4.608 0 25.6 25.6 0 0 0-20.736 29.44l36.096 204.8a25.6 25.6 0 0 0 51.2-8.704z m231.936 153.6A89.344 89.344 0 0 0 665.6 358.4h-29.696l-14.336-81.152a25.6 25.6 0 0 0-25.6-21.248 14.08 14.08 0 0 0-4.608 0 25.6 25.6 0 0 0-20.736 29.44l18.176 102.4a25.6 25.6 0 0 0 25.6 21.76h51.2a38.4 38.4 0 0 1 35.072 29.952 18.432 18.432 0 0 1-3.328 15.616 17.152 17.152 0 0 1-13.568 5.632h-51.2a25.6 25.6 0 0 0 0 51.2h51.2a68.352 68.352 0 0 0 52.736-23.808 69.888 69.888 0 0 0 14.592-57.344z"  horiz-adv-x="1024" />

    
    <glyph glyph-name="zansel" unicode="&#58952;" d="M851.741239 535.771659c-32.377408 8.499581-108.515483 8.400321-219.866546 11.333116 5.258771 24.306592 6.473435 46.213531 6.473435 85.120656 0 92.932576-67.688635 174.792978-127.606283 174.792978-42.268686 0-77.152171-34.58161-77.679174-77.103052-0.582261-52.15894-16.700357-142.261051-103.610776-187.946556-6.378268-3.365654-24.616654-12.342096-27.270087-13.535271l1.366114-1.161453c-13.613042 11.737322-32.454156 20.719904-51.804876 20.719904l-77.709873 0c-42.849924 0-77.706803-34.859949-77.706803-77.708849l0-414.432871c0-42.8489 34.856879-77.708849 77.706803-77.708849l77.709873 0c30.835286 0 56.608276 18.62008 69.104891 44.725644 0.305969-0.101307 0.862647-0.255827 1.215688-0.304945 1.716084-0.454348 3.719718-0.959861 6.196119-1.6158 0.456395-0.106424 0.710175-0.159636 1.193175-0.311085 14.923898-3.692089 43.632753-10.570753 105.021915-24.685215 13.1853-2.983961 82.659605-17.808598 154.696268-17.808598l141.609205 0c43.154869 0 74.267471 16.58984 92.783173 49.932226 0.25378 0.505513 6.221702 12.147668 11.08036 27.881001 3.64297 11.828396 5.008061 28.575826 0.607844 45.577035 27.822672 19.126616 36.777625 48.01148 42.597167 66.818825 9.765411 30.861892 6.829546 54.031591 0.054235 70.625524 15.629979 14.774495 28.982078 37.283138 34.601052 71.637574 3.487428 21.296025-0.25378 43.202964-10.07138 61.447491 14.674211 16.46602 21.352307 37.184901 22.107507 56.356542l0.309038 5.414313c0.201591 3.413749 0.355087 5.517667 0.355087 12.974499C925.202345 479.537913 902.535089 521.248897 851.741239 535.771659z"  horiz-adv-x="1024" />

    
    <glyph glyph-name="dianzan" unicode="&#58885;" d="M598.354747 828.457374c-48.148687 0-90.130101-32.905051-98.960808-79.437576 0 0-14.312727-72.882424-21.798787-99.090101-12.308687-43.196768-55.363232-90.944646-86.522829-106.188283-23.531313-11.636364-110.99798-11.765657-116.350707-11.765656H155.707475c-32.762828 0-59.384242-26.479192-59.384243-59.384243v-475.022222c0-32.762828 26.479192-59.384242 59.384243-59.384242h548.033939c88.126061 0 163.025455 64.452525 176.135758 151.647676l45.873131 305.713132c10.834747 71.809293-44.8 136.274747-117.423838 136.274747H673.254141s20.066263 66.469495 30.228687 178.669899c5.081212 56.837172-35.167677 110.99798-94.280404 117.152323-3.620202 0.54303-7.227475 0.814545-10.847677 0.814546zM333.705051-2.288485V474.466263c38.917172 2.534141 66.999596 8.016162 83.574949 16.316767 43.726869 21.669495 99.633131 81.040808 117.281616 143.088485 7.899798 27.681616 21.39798 96.155152 23.001212 104.184243 3.47798 17.92 20.596364 31.159596 40.649697 31.159596 1.603232 0 3.206465-0.129293 4.822627-0.271516 28.211717-2.947879 43.326061-29.698586 41.32202-52.686868-9.360808-103.912727-27.823838-166.503434-28.082425-166.904243l-23.130505-76.489697h215.182223c17.519192 0 33.564444-7.356768 45.071515-20.596363 11.507071-13.239596 16.316768-30.228687 13.640404-47.618586L821.294545 98.947879c-8.830707-58.569697-58.181818-101.094141-117.423838-101.094142h-370.165656v-0.142222z m-177.997576 0v475.022222h118.626262v-475.022222H155.707475z m0 0"  horiz-adv-x="1024" />

    
    <glyph glyph-name="xihuan1" unicode="&#58886;" d="M1080.236973 676.974703a333.076757 333.076757 0 0 1-72.89773 106.080865 338.473514 338.473514 0 0 1-107.658378 71.126486 339.884973 339.884973 0 0 1-131.210379 26.015135 342.071351 342.071351 0 0 1-214.901621-75.748324 330.447568 330.447568 0 0 1-36.504216 25.766054A342.237405 342.237405 0 0 1 338.694919 880.197189a340.134054 340.134054 0 0 1-131.238054-26.015135 338.030703 338.030703 0 0 1-107.630703-71.126486A331.388541 331.388541 0 0 1 26.900757 676.974703 328.953081 328.953081 0 0 1 0 546.373189c0-42.648216 8.717838-87.123027 26.015135-132.372757 14.474378-37.804973 35.231135-76.99373 61.772108-116.597621 42.011676-62.65773 99.826162-128.027676 171.589189-194.255568 118.894703-109.817081 236.654703-185.676108 241.664-188.775784l30.360217-19.456a41.098378 41.098378 0 0 1 44.225729 0l30.360217 19.456c5.009297 3.210378 122.630919 78.958703 241.664 188.775784 71.763027 66.227892 129.577514 131.597838 171.589189 194.255568 26.540973 39.603892 47.436108 78.792649 61.772108 116.597621 17.297297 45.24973 26.015135 89.724541 26.015135 132.372757a326.019459 326.019459 0 0 1-26.790054 130.601514z"  horiz-adv-x="1107" />

    
    <glyph glyph-name="xihuan" unicode="&#58939;" d="M512-102.4c-19.2 0-38.4 12.8-38.4 19.2C454.4-70.4 128 256 83.2 300.8 32 358.4 0 428.8 0 499.2s32 147.2 83.2 198.4c51.2 51.2 121.6 83.2 198.4 83.2 76.8 0 147.2-32 198.4-83.2C492.8 684.8 505.6 672 512 659.2c6.4 12.8 19.2 25.6 32 38.4 51.2 51.2 121.6 83.2 198.4 83.2 76.8 0 147.2-32 198.4-83.2C992 646.4 1024 576 1024 499.2c0-76.8-32-147.2-83.2-198.4C896 256 569.6-70.4 550.4-83.2 550.4-89.6 531.2-102.4 512-102.4z"  horiz-adv-x="1024" />

    
    <glyph glyph-name="PCbofangye_paihangbang" unicode="&#58946;" d="M432 784l160 0 0-800-160 0 0 800ZM165.34 463.97l160 0 0-479.97-160 0 0 479.97ZM698.66 357.29l160 0 0-373.29-160 0 0 373.29Z"  horiz-adv-x="1024" />

    
    <glyph glyph-name="shouyinji" unicode="&#59037;" d="M611.413333 800a32 32 0 0 0-9.109333-42.026667l-2.602667-1.685333-219.904-126.933333L864 629.333333a64 64 0 0 0 64-64v-490.666666a64 64 0 0 0-64-64h-704a64 64 0 0 0-64 64v490.666666a64 64 0 0 0 64 64h91.989333l1.642667 1.045334 314.069333 181.333333a32 32 0 0 0 43.733334-11.712z m252.586667-234.666667h-704v-490.666666h704v490.666666z m-224-64a181.333333 181.333333 0 1 0 0-362.666666 181.333333 181.333333 0 0 0 0 362.666666zM373.333333 213.333333a32 32 0 0 0 0-64h-149.333333a32 32 0 0 0 0 64h149.333333zM640 437.333333a117.333333 117.333333 0 1 1 0-234.666666 117.333333 117.333333 0 0 1 0 234.666666zM309.333333 320a32 32 0 0 0 0-64h-85.333333a32 32 0 0 0 0 64h85.333333z"  horiz-adv-x="1024" />

    
    <glyph glyph-name="redian" unicode="&#58924;" d="M561.40015-82.276141c-3.906058 0.765894-8.807779 5.054899-10.952282 9.573673-1.608377 3.446522-1.608377 5.897382-0.153178 31.631413 0.612715 11.335228 1.838145 33.929095 2.680628 50.166044s2.221092 42.200748 3.063575 57.824981c0.842483 15.547644 2.221092 41.588033 3.063575 57.824981s2.221092 41.358265 3.063575 55.910247 1.531788 28.491249 1.531788 31.018699 0.689304 16.466717 1.531788 31.018698 2.221092 39.596709 3.063575 55.680479c3.75288 71.764248 4.748542 89.609574 6.280329 115.496784 1.148841 19.68347 1.378609 27.572177 0.765894 27.801945-0.459536 0.153179-2.067913 1.072251-3.599701 2.144502-1.531788 0.995662-2.986986 1.838145-3.216754 1.838145-1.148841 0-17.079432 15.930591-17.079432 17.002842 0 0.459536-0.459536 1.455198-1.072251 2.067914-1.148841 1.378609-4.289005 7.35258-6.20374 11.871353-2.221092 5.131488-4.212416 16.390127-4.212416 24.049066 0 12.177711 3.67629 24.66178 10.339567 35.001346 2.144503 3.369933 7.35258 9.726851 9.573672 11.564996 1.072251 0.919073 3.140165 2.757218 4.595363 4.135827 6.816455 6.20374 19.453702 12.101122 30.942109 14.475392 35.307704 7.42917 69.926103-10.645924 82.410172-42.890052 4.97831-13.020194 4.97831-32.780254 0-45.800449-2.52745-6.586687-7.582349-15.088108-11.10546-18.917577-1.148841-1.22543-2.833807-3.063575-3.75288-4.135826-2.910396-3.369933-11.411818-9.88003-16.00718-12.254301-1.608377-0.765894-2.067913-1.455198-1.761556-2.680628 0.229768-0.842483 0.536126-7.888706 0.842484-15.700823 0.229768-7.812117 1.072251-28.108302 1.914734-45.187733s2.221092-46.566343 3.063575-65.48392c0.842483-18.994166 2.221092-48.940613 3.063575-66.63276s2.221092-47.715183 3.063576-66.632759c0.842483-18.994166 2.221092-47.944951 3.063575-64.335079 0.842483-16.466717 1.531788-32.09095 1.531787-34.848168s0.612715-18.764398 1.531788-35.614061c3.982648-79.499776 4.671952-94.204936 4.595363-104.927449 0-11.10546-0.076589-11.641586-1.991324-14.628572-1.072251-1.684966-3.599701-4.059237-5.514435-5.361256l-3.599701-2.221092-46.719522-0.07659c-25.657442-0.076589-47.562004 0.076589-48.634255 0.229768zM162.675841 139.75647c-4.97831 5.361257-9.497083 10.109798-9.956619 10.569334-0.382947 0.459536-2.986986 3.446522-5.667614 6.586687s-5.131488 5.897382-5.361256 6.12715c-1.991324 1.684966-25.274495 31.861182-25.274496 32.703665 0 0.306358-0.612715 1.22543-1.455198 2.067913-2.067913 2.374271-15.394465 22.517277-19.836649 30.023037-0.919073 1.684966-2.374271 3.982648-3.140165 5.284667-5.131488 8.348242-10.109798 17.768736-17.845325 33.31638-9.267315 18.917577-10.645924 21.904562-17.615557 39.44353-0.842483 2.067913-2.221092 5.284667-2.986986 7.122812-0.765894 1.761556-1.455198 3.67629-1.455198 4.212416s-0.689304 2.45086-1.531788 4.212416c-0.842483 1.684966-1.531788 3.599701-1.531787 4.212416s-0.536126 2.45086-1.22543 4.059237c-0.689304 1.684966-1.531788 3.982648-1.838145 5.284667-0.306358 1.22543-1.148841 3.829469-1.761556 5.744204-0.689304 1.914734-1.914734 5.820793-2.757218 8.807778-0.842483 2.910396-2.221092 7.658938-3.140164 10.416156-0.842483 2.757218-1.531788 5.667614-1.531788 6.433508s-0.689304 3.67629-1.455198 6.433508c-1.455198 4.748542-2.680628 10.569334-6.127151 27.648766-1.455198 7.42917-3.67629 22.134331-5.820792 38.677636-3.293343 25.044727-3.446522 85.473747-0.382947 111.897083 4.748542 41.128497 11.564996 72.530142 23.742707 109.446223 4.365595 13.326552 6.050561 17.921915 11.335228 31.401645 1.531788 4.059237 10.339566 23.895886 11.564997 26.193568 0.382947 0.765894 2.374271 4.825131 4.518773 9.037547 6.433508 13.096784 12.867016 24.968138 18.228272 33.699327 0.995662 1.684966 2.221092 3.75288 2.604039 4.595362 0.459536 0.842483 1.838145 3.063575 3.063575 4.97831s3.293343 5.208078 4.518774 7.352581c1.302019 2.221092 2.910396 4.365595 3.523111 4.90172s1.148841 1.22543 1.148841 1.608377 1.072251 2.144503 2.297681 3.906058c1.302019 1.838145 3.75288 5.361257 5.514436 7.888706s3.446522 4.671952 3.829469 4.825131c0.306358 0.153179 0.612715 0.612715 0.612715 1.072251 0 0.382947 1.455198 2.52745 3.216753 4.748542 1.838145 2.221092 3.982648 4.97831 4.825131 6.12715 0.842483 1.22543 2.067913 2.757218 2.757218 3.446522 0.612715 0.689304 2.986986 3.599701 5.284667 6.586687 4.518773 5.820793 4.90172 6.356918 14.85834 17.538968 10.339566 11.718175 20.98549 22.670456 22.13433 22.670456 1.22543 0 33.469559-32.244129 33.469559-33.546148 0-0.612715-2.297681-3.369933-5.131488-6.280329-6.510097-6.510097-14.78175-15.547644-20.602543-22.593867-2.52745-2.910396-4.97831-5.820793-5.514436-6.356919-0.459536-0.612715-3.216754-4.059237-6.050561-7.658938-2.833807-3.67629-5.361257-6.816455-5.591024-7.046222s-0.689304-0.919073-1.148841-1.608377c-1.072251-1.761556-12.484069-17.692147-13.786088-19.300524-0.612715-0.689304-1.148841-1.455198-1.148841-1.608377 0-0.229768-1.684966-2.833807-3.67629-5.973971-2.067913-3.063575-4.365595-6.663276-5.054899-7.888707-0.689304-1.302019-2.297681-3.829469-3.523112-5.744203s-2.52745-3.982648-2.833807-4.595363-2.297681-4.289005-4.442184-8.041885c-5.131488-9.037547-15.241286-29.793269-20.296185-41.358264-2.144503-5.054899-4.212416-9.88003-4.595363-10.722513s-1.22543-2.910396-1.838145-4.595363-1.991324-5.514435-3.063575-8.424832c-2.757218-7.275991-8.195064-23.895886-10.339566-31.401645-0.995662-3.369933-2.45086-8.195064-3.216754-10.645924-0.842483-2.52745-1.455198-5.208078-1.455198-6.050561 0-0.765894-0.689304-3.906058-1.455199-6.893044-8.884368-33.31638-14.551982-89.762752-12.407479-124.993867 2.067913-34.235453 2.52745-38.983994 6.280329-61.271503 4.059237-24.202244 11.182049-52.463725 18.45804-73.142857 5.667614-16.160359 8.960957-24.585191 12.560659-32.703665 0.612715-1.302019 1.072251-2.604039 1.072251-2.833807 0-0.689304 10.186387-21.981152 14.398803-30.176216 2.221092-4.135826 2.833807-5.437846 5.361257-10.109798 1.455198-2.757218 3.063575-5.514435 3.599701-6.12715s1.148841-1.684966 1.378608-2.297682c0.306358-0.612715 1.378609-2.52745 2.450861-4.212415 0.995662-1.684966 2.45086-4.059237 3.140164-5.284668s2.45086-3.906058 3.829469-5.973971c1.455198-1.991324 2.604039-3.829469 2.604039-3.982648 0-0.459536 4.671952-7.505759 5.284667-8.118474 0.306358-0.229768 0.842483-0.919073 1.22543-1.608377 0.919073-1.531788 6.663276-9.956619 7.42917-11.028871 0.382947-0.459536 2.374271-2.986986 4.442184-5.744203s4.289005-5.514435 4.97831-6.20374c0.612715-0.689304 1.148841-1.608377 1.14884-2.067913 0-0.536126 0.306358-0.919073 0.612715-0.919073 0.382947 0 1.684966-1.455198 2.986986-3.293343 1.302019-1.761556 2.986986-3.906058 3.829469-4.748541 0.765894-0.842483 2.374271-2.757218 3.599701-4.212416 3.829469-4.748542 12.867016-14.705161 19.76006-21.904563 3.75288-3.75288 6.739865-7.275991 6.739865-7.658938 0-0.765894-33.010022-34.005684-33.775916-34.005684-0.229768 0-4.518773 4.365595-9.573673 9.650262zM1032.960957 146.802693c-9.114136 9.114136-16.619895 16.849663-16.619895 17.156021 0 0.229768 1.148841 1.608377 2.52745 2.986985 4.595363 4.748542 13.096784 14.015856 17.768736 19.377113 2.52745 2.910396 5.361257 6.050561 6.356918 6.969634 0.919073 0.919073 1.684966 2.067913 1.684966 2.604039 0 0.459536 0.306358 0.842483 0.689305 0.842483s2.144503 1.991324 3.982648 4.365594c4.518773 5.973972 4.671952 6.280329 6.280329 7.735528 0.689304 0.689304 1.302019 1.684966 1.302019 2.221092s0.306358 0.995662 0.612715 0.995662c0.536126 0 5.054899 5.897382 8.578011 11.10546 0.612715 0.919073 2.52745 3.67629 4.212415 6.12715 5.054899 7.199402 13.403141 19.836649 14.169036 21.445026 0.382947 0.842483 1.608377 2.910396 2.604038 4.595363 1.072251 1.684966 3.599701 5.973972 5.591025 9.573672s4.289005 7.505759 4.97831 8.807779c2.680628 4.595363 14.245625 28.491249 17.462378 35.997008 1.761556 4.212416 3.829469 9.037547 4.595363 10.722513s1.761556 4.059237 2.144503 5.361257c0.459536 1.22543 1.684966 4.671952 2.833807 7.658938 2.52745 6.816455 7.965295 23.43635 10.339566 31.401645 0.919073 3.369933 2.297681 8.195064 3.063575 10.722513 2.221092 7.812117 6.816455 28.874196 9.114136 42.124159 7.42917 43.043231 8.6546 94.358115 3.063575 136.329095-2.680628 20.525954-6.050561 39.060583-9.190725 50.702169-0.765894 2.986986-1.455198 6.050561-1.455198 6.739865s-0.689304 3.369933-1.531788 5.973972c-0.765894 2.604039-2.221092 7.505759-3.140165 10.875692s-2.067913 7.35258-2.604038 8.807778c-1.684966 4.595363-4.289005 12.560658-4.901721 14.934929-0.306358 1.22543-1.148841 3.369933-1.838145 4.748542-0.765894 1.378609-1.302019 2.910396-1.302019 3.523111 0 0.536126-0.689304 2.45086-1.531788 4.212416-0.842483 1.684966-1.531788 3.523111-1.531787 3.906058 0 0.765894-1.991324 5.437846-4.671953 11.028871-0.842483 1.684966-1.455198 3.293343-1.455198 3.67629 0 0.612715-3.67629 8.501421-10.645923 22.900225-3.446522 7.199402-6.893044 13.479731-14.015857 25.88721-0.842483 1.531788-1.991324 3.523111-2.45086 4.365594s-2.144503 3.523111-3.75288 5.973972c-1.531788 2.374271-2.833807 4.518773-2.833807 4.748541 0 0.612715-4.90172 7.658938-5.514435 7.888707-0.306358 0.153179-0.612715 0.612715-0.612715 0.919072 0 0.382947-1.148841 2.297681-2.45086 4.289005-1.378609 1.914734-3.063575 4.289005-3.67629 5.284667-1.991324 2.986986-5.591025 7.888706-10.645924 14.398804-2.680628 3.446522-5.591025 7.275991-6.510097 8.501421-0.842483 1.148841-2.221092 2.757218-2.910397 3.369933-0.765894 0.689304-1.378609 1.684966-1.378608 2.221092s-0.306358 0.995662-0.689305 0.995661c-0.306358 0-2.221092 1.991324-4.135826 4.442184-1.914734 2.374271-4.595363 5.591025-5.897383 7.046223-6.20374 6.893044-16.619895 17.998504-17.845325 19.070756-3.906058 3.369933-4.135826 2.986986 13.326552 20.449364 9.037547 9.037547 16.926253 16.390127 17.615557 16.390127 1.302019 0 12.867016-12.101122 28.184892-29.486911 8.041885-9.114136 26.116978-32.550486 30.329394-39.366941 0.459536-0.689304 0.995662-1.378609 1.22543-1.608377 1.072251-0.919073 11.411818-16.773074 11.411818-17.538968 0-0.459536 0.306358-0.842483 0.612715-0.842483 0.382947 0 1.22543-1.148841 1.914734-2.527449 0.765894-1.302019 2.297681-3.982648 3.523112-5.897382s3.369933-5.514435 4.671952-8.041885c1.378609-2.52745 2.757218-4.97831 3.140164-5.437846 2.144503-2.680628 22.134331-42.507105 23.283172-46.259985 0.306358-1.072251 0.842483-2.297681 1.14884-2.680628 0.382947-0.459536 1.148841-2.144503 1.761556-3.829469 1.455198-3.906058 5.667614-14.551982 7.122812-17.921915 0.612715-1.455198 2.144503-5.591025 3.369933-9.267315 1.22543-3.599701 2.680628-7.965295 3.293343-9.650262 1.378609-3.67629 7.122812-22.134331 7.735527-24.814959 0.229768-1.072251 1.531788-6.433508 2.986986-11.871353 6.356918-24.125654 9.803441-43.426178 13.709499-75.440539 1.531788-13.020194 1.684966-17.462378 1.684966-53.612565s-0.153179-40.592371-1.684966-53.612566c-5.208078-42.736874-11.718175-72.913089-23.589529-109.139865-3.75288-11.258639-6.12715-18.075093-7.505759-21.445026-0.536126-1.302019-1.761556-4.365595-2.757217-6.893045-1.761556-4.748542-1.991324-5.284667-6.127151-14.934929-4.289005-9.803441-7.582349-16.849663-12.867016-27.189229-6.893044-13.55632-8.348242-16.313538-10.492744-19.913239-0.995662-1.684966-2.221092-3.75288-2.604039-4.595362-0.459536-0.842483-1.684966-2.910396-2.757218-4.595363-0.995662-1.684966-2.604039-4.289005-3.446522-5.744204-3.446522-5.897382-19.147345-29.946447-20.219596-31.018698-0.459536-0.459536-1.148841-1.378609-1.608377-2.067914-2.45086-3.982648-10.492745-14.551982-17.615557-23.206581-1.378609-1.684966-4.442184-5.514435-6.893044-8.424832-8.195064-10.109798-29.793269-33.31638-30.94211-33.31638-0.229768 0-7.965295 7.505759-17.156021 16.696485zM267.833059 233.731638c-1.531788 1.761556-5.284667 5.820793-8.271653 8.960957-11.794764 12.560658-31.401645 38.141511-39.366941 51.468063-0.382947 0.689304-3.140165 5.208078-6.050561 9.956619-10.569334 17.23261-24.814959 47.408826-31.018698 65.713688-14.092446 41.281675-20.372775 75.593717-21.215258 115.649962-1.072251 47.944951 3.906058 83.86537 17.462378 127.13837 6.893044 22.057741 21.674794 55.374121 31.861182 71.994016 0.919073 1.455198 2.374271 3.906058 3.216754 5.361257 6.816455 11.718175 28.797607 43.11982 32.473897 46.336574 0.459536 0.382947 2.374271 2.680628 4.289005 4.901721 1.914734 2.297681 4.135826 4.90172 4.978309 5.820792 0.842483 0.842483 4.595363 4.97831 8.271653 9.037547 3.75288 4.059237 7.199402 7.42917 7.658938 7.42917 0.536126 0 8.501421-7.582349 17.692147-16.773074l16.849663-16.849664-3.063575-3.216753c-1.608377-1.761556-4.518773-4.825131-6.433508-6.816455-9.420494-9.88003-22.823635-26.499925-27.189229-33.622738-0.382947-0.689304-0.995662-1.378609-1.22543-1.608377-0.536126-0.459536-10.722513-15.930591-11.871354-17.998504-0.459536-0.842483-1.608377-2.910396-2.604039-4.595362-18.381451-31.937771-31.478235-66.479581-38.2181-100.715034-11.718175-60.275841-7.046223-121.317577 13.709499-177.68736 1.378609-3.599701 2.833807-7.505759 3.293343-8.807779 0.459536-1.22543 1.22543-3.140165 1.838145-4.212415 0.536126-1.072251 0.995662-2.144503 0.995662-2.45086 0-0.536126 5.514435-12.713837 6.893044-15.394466 0.459536-0.689304 1.148841-1.991324 1.531788-2.833807 0.459536-0.842483 1.148841-2.297681 1.684966-3.293343 7.505759-14.092446 12.177711-22.134331 17.845325-30.482573l3.063576-4.595363c0.382947-0.689304 2.297681-3.446522 4.212415-6.050561s3.829469-5.361257 4.212416-6.050561c0.459536-0.612715 1.148841-1.531788 1.608377-1.991324 0.459536-0.382947 1.991324-2.297681 3.369933-4.212415 1.455198-1.914734 3.140165-3.982648 3.752879-4.671952 0.689304-0.765894 2.45086-2.757218 3.906059-4.595363 1.455198-1.761556 4.97831-5.667614 7.735527-8.6546s6.280329-6.816455 7.812117-8.578011l2.757217-3.063575-16.619895-16.619895c-9.114136-9.114136-17.156021-16.619895-17.768736-16.619895s-2.45086 1.531788-4.059237 3.293343zM933.011818 246.751832c-8.884368 8.960957-16.236948 16.543306-16.236949 16.926253s2.144503 2.986986 4.825131 5.744204c2.604039 2.757218 6.663276 7.199402 8.960957 9.88003s4.748542 5.437846 5.361257 6.050561c1.531788 1.684966 10.875692 13.479731 12.254301 15.547644 0.612715 0.919073 1.991324 2.833807 3.063575 4.289005 3.906058 5.208078 6.663276 9.267315 9.88003 14.475392 1.914734 2.910396 3.906058 6.20374 4.595362 7.275991 4.135826 6.510097 15.011518 27.572177 19.377113 37.528796 0.842483 1.914734 1.991324 4.442184 2.604039 5.744204 0.536126 1.22543 1.531788 3.67629 2.144503 5.361256s1.991324 5.437846 3.140164 8.424832c1.072251 2.910396 2.297681 6.356918 2.604039 7.658938 0.382947 1.22543 1.148841 3.67629 1.761556 5.361256 1.302019 3.446522 3.599701 11.564996 5.897382 20.679133 15.777412 64.1819 11.947943 131.044428-11.02887 193.005235-1.072251 2.910396-2.297681 6.20374-2.680629 7.275991-2.144503 6.356918-11.871354 26.959461-17.309199 36.456545-2.221092 3.982648-4.135826 7.505759-4.135827 7.658938 0 0.229768-0.612715 1.302019-1.378609 2.45086-3.906058 5.667614-7.812117 11.718175-7.812116 12.024533 0 0.153179-1.148841 1.914734-2.45086 3.829469-1.378609 1.991324-2.833807 4.135826-3.293344 4.90172-1.302019 2.221092-8.348242 11.182049-8.960957 11.411817-0.306358 0.153179-0.612715 0.689304-0.612715 1.22543 0 0.459536-0.612715 1.455198-1.30202 2.144503-0.765894 0.689304-1.838145 1.838145-2.37427 2.52745-0.612715 0.689304-2.757218 3.369933-4.97831 5.973971-4.748542 5.820793-7.888706 9.190726-14.245625 15.624233l-4.90172 4.97831 17.156021 17.156021 17.156021 17.23261 7.658938-7.965295c10.569334-11.028871 12.024533-12.637248 20.755722-23.51294 6.969634-8.731189 11.718175-15.011518 13.709499-18.304861 0.459536-0.689304 0.995662-1.378609 1.22543-1.608377 0.612715-0.459536 10.952281-16.08377 11.641585-17.615557 0.306358-0.612715 2.297681-3.906058 4.289006-7.275991 4.135826-6.739865 17.845325-33.775916 21.138668-41.741212 1.148841-2.757218 2.757218-6.433508 3.523112-8.195064 0.842483-1.838145 1.455198-3.599701 1.455198-4.059237 0-0.382947 0.612715-2.221092 1.455198-3.982647 0.765894-1.838145 1.838145-4.518773 2.297681-5.973972 10.416156-30.482573 15.241286-51.008527 19.377113-82.333583 1.531788-11.718175 1.684966-16.160359 1.684967-44.804786 0-33.852506-0.459536-40.592371-4.97831-65.866867-3.599701-19.913239-9.420494-42.353927-15.394465-58.744053-0.765894-2.221092-2.144503-6.050561-2.986986-8.424832-0.919073-2.45086-2.221092-5.820793-2.986986-7.505759-0.689304-1.684966-2.067913-4.97831-3.063575-7.275991-4.442184-10.952281-14.092446-30.329394-20.602543-41.205086-1.302019-2.221092-2.374271-4.212416-2.374271-4.442184s-0.612715-1.302019-1.455198-2.45086c-0.765894-1.148841-4.212416-6.356918-7.735527-11.641586-3.446522-5.284667-6.969634-10.262977-7.735527-11.182049-0.842483-0.842483-1.455198-1.838145-1.455199-2.144503 0-0.459536-4.90172-7.046223-7.812116-10.416156-0.536126-0.612715-3.67629-4.442184-6.893044-8.501421-9.573672-11.947943-22.823635-25.9638-24.508602-25.963799-0.536126 0-8.348242 7.35258-17.309199 16.313537zM833.828571 345.935079c-9.114136 9.114136-16.619895 17.002842-16.619895 17.385789 0 0.459536 2.297681 3.369933 5.208078 6.510097 8.118474 9.114136 16.619895 20.143007 20.066417 26.040389 0.842483 1.455198 2.45086 4.059237 3.446522 5.744203 2.297681 3.67629 11.871354 22.823635 11.871354 23.666118 0 0.306358 0.459536 1.684966 1.072251 2.986986 2.52745 5.591025 7.046223 21.062079 9.497083 32.703665 3.293343 15.241286 4.059237 40.822139 1.761556 60.122663-0.689304 6.050561-3.599701 20.066417-5.744203 27.572176-3.75288 13.020194-9.573672 26.806283-16.773074 39.443531-4.671952 8.271653-4.90172 8.6546-8.578011 13.862677-1.684966 2.374271-3.599701 5.131488-4.212416 6.050561s-1.455198 2.144503-1.914734 2.604039c-0.382947 0.459536-2.144503 2.604039-3.75288 4.671952-1.684966 2.144503-3.369933 4.135826-3.829469 4.595363-0.459536 0.382947-2.680628 2.833807-4.90172 5.284667l-4.135826 4.518773 16.773074 16.773075c9.190726 9.190726 17.079432 16.696485 17.615557 16.696484 1.761556 0 25.504263-27.725355 25.504263-29.793268 0-0.382947 0.306358-0.842483 0.612715-0.995662 0.919073-0.306358 5.514435-7.275991 5.514435-8.195064 0-0.459536 0.306358-0.842483 0.612716-0.842483 0.382947 0 1.148841-0.919073 1.684966-2.144503 0.612715-1.148841 1.531788-2.604039 1.991324-3.216754 1.302019-1.684966 13.096784-24.738369 14.398803-28.108302 0.612715-1.608377 1.838145-4.825131 2.757218-7.122812 5.973972-14.934929 9.497083-27.955123 13.403141-49.017203 3.140165-16.849663 3.293343-54.378459 0.382947-72.376963-1.761556-10.645924-4.059237-21.445026-6.280329-29.103964-2.52745-8.6546-6.12715-19.070755-6.816455-19.913239-0.382947-0.382947-0.689304-1.22543-0.689304-1.914734-0.076589-0.612715-0.689304-2.52745-1.531788-4.212416s-1.455198-3.369933-1.531788-3.67629c0-0.382947-2.221092-5.054899-4.90172-10.416156-5.437846-10.952281-12.254301-22.517277-17.845325-30.329394-1.991324-2.833807-3.982648-5.667614-4.442184-6.356918-0.382947-0.689304-1.148841-1.608377-1.608377-2.067914-0.459536-0.382947-1.991324-2.297681-3.369933-4.212416-2.604039-3.369933-4.97831-6.12715-9.497083-11.02887-1.148841-1.302019-2.757218-3.063575-3.446522-3.906058s-2.144503-2.297681-3.216754-3.216754l-1.914734-1.684967-16.619896 16.619896zM365.17816 336.361406c-6.20374 6.663276-15.547644 18.075093-18.917577 23.053403-1.072251 1.684966-2.52745 3.75288-3.140164 4.671952-3.982648 5.820793-5.897382 8.807779-7.505759 11.871354-0.995662 1.914734-2.374271 4.289005-3.063575 5.361257-4.135826 6.356918-17.002842 34.924757-17.002843 37.681974 0 0.536126-0.689304 2.680628-1.455198 4.825131-3.216754 8.424832-6.739865 23.359761-9.343904 39.44353-1.455198 8.960957-1.684966 13.403141-1.684966 33.31638 0 20.066417 0.229768 24.355423 1.684966 33.699327 2.374271 14.85834 5.667614 29.103964 8.960957 38.677637 0.689304 1.914734 1.531788 4.442184 1.838145 5.744203 0.306358 1.22543 1.072251 3.523111 1.761556 4.97831 0.612715 1.455198 1.914734 4.595363 2.833807 6.893044 5.361257 13.479731 22.823635 44.957966 25.274495 45.800449 0.459536 0.153179 0.765894 0.612715 0.765894 0.995662 0 0.689304 6.20374 9.267315 8.348242 11.488407 0.689304 0.765894 2.45086 2.757218 3.906059 4.595362 5.361257 6.586687 12.484069 13.709499 13.709499 13.709499 0.689304 0 8.6546-7.35258 17.615557-16.390127 17.921915-17.921915 17.002842-16.390127 12.713837-20.832311-3.75288-3.906058-7.122812-7.735527-10.492745-12.101122-1.991324-2.604039-4.135826-5.208078-4.595363-5.820793-0.536126-0.612715-1.302019-1.684966-1.761556-2.374271-0.382947-0.689304-1.761556-2.757218-3.063575-4.595362-2.757218-4.059237-2.833807-4.212416-7.658938-12.713837-2.067913-3.67629-4.595363-8.271653-5.437846-10.186388-3.140165-6.586687-4.90172-10.492745-4.90172-11.02887 0-0.229768-0.612715-1.914734-1.378609-3.75288-2.067913-4.748542-4.059237-10.492745-4.748541-13.55632-0.306358-1.455198-1.072251-4.595363-1.761556-6.893044-2.067913-7.199402-4.289005-19.913239-5.131488-29.64009-2.52745-30.023037 2.067913-60.50561 13.020194-86.775767 1.378609-3.140165 2.604039-6.433508 2.833807-7.275991s1.072251-2.45086 1.914735-3.5997c0.765894-1.072251 1.378609-2.374271 1.378608-2.910397s0.612715-1.838145 1.378609-2.910396c0.765894-1.148841 2.374271-3.982648 3.599701-6.280329s2.52745-4.595363 2.833807-4.97831c0.382947-0.459536 2.144503-2.986986 3.906058-5.744203 5.437846-8.195064 8.424832-12.254301 9.114137-12.254301 0.306358 0 0.612715-0.536126 0.612715-1.148841s0.689304-1.455198 1.531787-1.914734 1.531788-1.148841 1.531788-1.531788c0-0.459536 0.995662-1.684966 2.144502-2.833807 1.22543-1.22543 3.67629-3.829469 5.514436-5.820793l3.369932-3.67629-16.849663-16.849663c-9.190726-9.190726-17.079432-16.773074-17.538968-16.773074-0.382947 0-3.369933 2.833807-6.663276 6.356918zM733.573074 446.343755l-16.773074 16.773074 3.523111 4.442184c10.722513 13.096784 13.249963 31.861182 6.433508 47.408825-1.914734 4.365595-8.041885 13.403141-9.190725 13.403142-0.382947 0-0.689304 0.382947-0.689305 0.765894 0 0.459536 7.582349 8.424832 16.926253 17.692146 18.381451 18.304862 17.23261 17.615557 20.98549 12.943605 0.842483-1.072251 2.221092-2.604039 3.063575-3.446522s1.914734-2.067913 2.297682-2.757217c0.459536-0.765894 1.838145-2.833807 3.063575-4.671953 7.658938-10.952281 13.709499-27.572177 15.088108-41.511443 1.455198-14.85834-1.072251-35.997008-5.208078-43.962304-0.536126-1.148841-1.072251-2.45086-1.072252-2.833807 0-1.455198-6.816455-14.015856-10.416155-19.070755-3.369933-4.90172-9.726851-11.947943-10.722513-11.947943-0.229768 0-8.041885 7.582349-17.3092 16.773074zM468.267464 432.864024c-1.302019 1.302019-3.523111 3.982648-4.978309 5.897382s-2.833807 3.523111-3.140165 3.67629c-0.382947 0.153179-0.612715 0.689304-0.612715 1.148841s-0.459536 1.378609-1.072251 1.991324c-1.838145 2.144503-6.969634 12.560658-9.114136 18.45804-4.289005 12.254301-5.208078 17.998504-5.208078 32.703665 0 11.947943 0.229768 14.628571 1.914735 21.674795 1.072251 4.442184 2.52745 9.420494 3.216753 11.105459 2.297681 5.820793 7.582349 16.08377 9.88003 19.377113 1.22543 1.838145 2.680628 3.906058 3.063576 4.671953 0.459536 0.689304 1.455198 1.991324 2.297681 2.833807s2.757218 2.986986 4.289005 4.748541l2.833807 3.140165 16.926253-16.849664c9.343904-9.343904 16.926253-17.385789 16.926253-17.921915s-0.459536-1.148841-0.995662-1.378608c-1.684966-0.612715-7.275991-9.420494-9.267315-14.475393-0.995662-2.680628-2.297681-7.582349-2.757218-10.952281-1.838145-11.488407 1.914734-25.044727 9.497083-34.312042 1.914734-2.374271 3.523111-4.595363 3.523112-4.825131 0-0.995662-32.780254-33.239791-33.775916-33.239791-0.612715 0-2.144503 1.148841-3.446523 2.52745z"  horiz-adv-x="1225" />

    
    <glyph glyph-name="rili" unicode="&#59227;" d="M673.33 427.48h125.6v-63.31h-125.6zM449.71 427.48h127.64v-63.31H449.71zM673.33 298.82h125.6v-62.29h-125.6zM449.71 298.82h127.64v-62.29H449.71zM673.33 173.23h125.6v-65.35h-125.6zM225.08 173.23h128.66v-65.35H225.08zM899.12 775h-91.38v-128.4c0-14.55-13.72-25.32-29.94-25.95s-29.94 12.35-29.94 25.97V775H276.14v-128.17c0-14.51-13.72-25.26-29.94-25.89s-29.94 12.35-29.94 25.89V775h-91.38A59.88 59.88 0 0 1 65 715.14v-689.82a59.88 59.88 0 0 1 59.88-59.88h774.24A59.88 59.88 0 0 1 959 25.32V715.14A59.88 59.88 0 0 1 899.12 775z m3.33-739.54a14.22 14.22 0 0 0-13.94-14h-753a14.22 14.22 0 0 0-14 14V527.75h780.9zM449.71 173.23h127.64v-65.35H449.71zM225.08 427.48h128.66v-63.31H225.08zM225.08 298.82h128.66v-62.29H225.08zM246.2 640.49m-44.91 0a44.91 44.91 0 1 1 89.82 0 44.91 44.91 0 1 1-89.82 0ZM777.8 640.49m-44.91 0a44.91 44.91 0 1 1 89.82 0 44.91 44.91 0 1 1-89.82 0ZM270.2 652.86V802.56c0 12.55-11 24.58-24 24s-24-10.55-24-24v-149.7c0-12.56 11-24.58 24-24s24 10.54 24 24zM801.8 652.86V802.56c0 12.55-11 24.58-24 24s-24-10.55-24-24v-149.7c0-12.56 11-24.58 24-24s24 10.54 24 24z"  horiz-adv-x="1024" />

    
    <glyph glyph-name="gedan" unicode="&#58907;" d="M770.048-45.056H248.832c-55.296 0-100.352 45.056-100.352 100.352V668.16c0 55.296 45.056 100.352 100.352 100.352h521.216c55.296 0 100.352-45.056 100.352-100.352v-613.376c0-54.784-45.056-99.84-100.352-99.84zM248.832 728.576c-33.28 0-60.416-27.136-60.416-60.416v-613.376c0-33.28 27.136-60.416 60.416-60.416h521.216c33.28 0 60.416 27.136 60.416 60.416V668.16c0 33.28-27.136 60.416-60.416 60.416H248.832zM614.4 544.768H247.296c-11.264 0-19.968 9.216-19.968 19.968s9.216 19.968 19.968 19.968H614.4c11.264 0 19.968-9.216 19.968-19.968s-8.704-19.968-19.968-19.968zM614.4 348.16H247.296c-11.264 0-19.968 9.216-19.968 19.968s9.216 19.968 19.968 19.968H614.4c11.264 0 19.968-9.216 19.968-19.968s-8.704-19.968-19.968-19.968zM417.792 138.24H247.296c-11.264 0-19.968 9.216-19.968 19.968s9.216 19.968 19.968 19.968h170.496c11.264 0 19.968-9.216 19.968-19.968s-9.216-19.968-19.968-19.968zM657.408 176.128h-1.024c-11.264 0.512-19.456 10.24-18.944 20.992l23.552 432.128c0.512 10.752 9.216 18.944 19.968 18.944 11.264 0 19.456-8.192 20.48-18.432 6.656-87.552 66.56-122.368 67.072-122.88 9.728-5.632 12.8-17.92 7.168-27.136-5.632-9.728-17.92-12.8-27.136-7.168-2.048 1.024-29.184 16.896-52.736 52.224l-17.92-329.216c-1.024-11.264-9.728-19.456-20.48-19.456zM559.104 89.6h-6.656c-31.744 1.536-60.928 15.872-82.432 39.424-21.504 23.552-32.256 54.272-30.208 86.528 1.536 31.744 15.872 60.928 39.424 82.432 23.552 21.504 54.272 32.256 86.528 30.208 66.048-3.584 116.224-59.904 112.64-125.952-3.584-63.488-56.32-112.64-119.296-112.64z m0 198.656c-19.456 0-38.4-7.168-52.736-20.48-15.872-14.336-25.088-33.792-26.112-54.784-1.024-20.992 6.144-41.472 19.968-57.344 14.336-15.872 33.792-25.088 54.784-26.112 44.032-2.048 81.408 31.232 83.456 74.752 2.56 43.52-31.232 81.408-74.752 83.456-2.048 0.512-3.072 0.512-4.608 0.512z"  horiz-adv-x="1024" />

    
    <glyph glyph-name="iconset0127" unicode="&#58906;" d="M541.696 384l340.992 340.992c4.096 4.096 4.096 8.192 4.096 13.312 0 12.288-8.192 21.504-21.504 21.504-4.096 0-13.312-4.096-13.312-4.096L512 413.696 171.008 754.688c-4.096 0-8.192 4.096-13.312 4.096-12.288 0-21.504-8.192-21.504-21.504 0-4.096 0-13.312 4.096-13.312L482.304 384 141.312 43.008c-4.096-4.096-4.096-8.192-4.096-13.312 0-12.288 8.192-21.504 21.504-21.504 4.096 0 13.312 4.096 13.312 4.096L512 354.304l340.992-340.992c4.096-4.096 8.192-4.096 13.312-4.096 12.288 0 21.504 8.192 21.504 21.504 0 4.096-4.096 13.312-4.096 13.312L541.696 384z"  horiz-adv-x="1024" />

    
    <glyph glyph-name="shengyin" unicode="&#58979;" d="M784 524.8c-16 25.6-35.2 44.8-44.8 54.4-9.6 9.6-28.8 9.6-38.4-3.2-9.6-9.6-9.6-28.8 3.2-38.4l9.6-9.6c9.6-9.6 19.2-22.4 25.6-35.2 57.6-86.4 57.6-179.2-38.4-278.4-9.6-9.6-9.6-28.8 0-38.4 9.6-9.6 28.8-9.6 38.4 0 112 121.6 112 243.2 44.8 348.8z m112 124.8c-16 25.6-35.2 48-54.4 70.4-9.6 12.8-19.2 19.2-25.6 25.6-9.6 9.6-28.8 9.6-38.4-3.2-9.6-9.6-9.6-28.8 3.2-38.4 3.2-3.2 12.8-9.6 22.4-22.4 16-19.2 32-38.4 48-64 105.6-160 105.6-336-70.4-518.4-9.6-9.6-9.6-28.8 0-38.4 9.6-9.6 28.8-9.6 38.4 0 195.2 204.8 195.2 409.6 76.8 588.8z m-412.8 160L265.6 624H156.8C99.2 624 48 576 48 515.2v-272c0-60.8 48-108.8 108.8-108.8h96L483.2-48c54.4-41.6 105.6-16 105.6 51.2V758.4c0 70.4-54.4 96-105.6 51.2z m51.2-803.2c0-22.4-3.2-22.4-19.2-9.6L278.4 182.4c-3.2 3.2-9.6 6.4-16 6.4H156.8c-28.8 0-54.4 25.6-54.4 54.4v272c0 28.8 25.6 54.4 54.4 54.4h118.4c6.4 0 12.8 3.2 16 6.4l224 192c16 12.8 16 12.8 16-6.4v-755.2z"  horiz-adv-x="1024" />

    
    <glyph glyph-name="wenjianjia" unicode="&#58955;" d="M862.3390425492543 651.4885931665383c-14.202934734696294 0-23.671556596622217-9.468623156464194-23.671556596622217-23.671556596622217s9.468623156464194-23.671556596622217 23.671556596622217-23.671556596622217c26.038713033007408 0 47.34311448778271-21.304401454775306 47.34311448778271-47.34311448778271v-82.85044938271605H111.95068782111605v175.16952192189632c0 26.038713033007408 21.304401454775306 47.34311448778271 47.343113193244434 47.34311448778271h168.0680552018173c11.835778298311109 0 23.671556596622217-2.3671551418469137 35.50733489493333-9.468623156464194l132.5607190123457-75.74898266263703c9.468623156464194-7.10146672007901 23.671556596622217-9.468623156464194 35.50733489493333-9.468623156464194h210.67685811136792c14.202934734696294 0 23.671556596622217 9.468623156464194 23.671556596622217 23.67155789116049s-9.468623156464194 23.671556596622217-23.671556596622217 23.671556596622217h-210.67685811136792c-4.734311578232097 0-7.10146672007901 0-11.835778298311109 2.3671551418469137l-132.5607190123457 75.74898266263703c-16.57008987654321 9.468623156464194-37.87449133131852 16.57008987654321-59.17889149155555 16.57008987654321h-168.0680552018173c-52.07742477147655 0-94.68622768102715-42.60880290955061-94.68622768102715-94.68622768102715v-563.3830558024691c0-52.07742477147655 42.60880290955061-94.68622768102715 94.68622768102715-94.68622768102715h703.0452415348939c52.07742477147655 0 94.68622768102715 42.60880290955061 94.68622897556541 94.68622768102715V556.802365485511c0 52.07742477147655-42.60880290955061 94.68622768102715-94.68622897556541 94.68622768102715z m47.34311448778271-563.3830558024691c0-26.038713033007408-21.304401454775306-47.34311448778271-47.34311448778271-47.343113193244434H159.2938010143605c-26.038713033007408 0-47.34311448778271 21.304401454775306-47.343113193244434 47.343113193244434V428.9759580513976h795.3643140740738v-340.87042068732825z"  horiz-adv-x="1024" />

    
    <glyph glyph-name="plus-pause" unicode="&#59171;" d="M512 896c-282.765 0-512-229.235-512-512 0-282.765 229.235-512 512-512s512 229.235 512 512c0 282.765-229.235 512-512 512zM512-76.8c-254.080 0-460.8 206.72-460.8 460.8s206.72 460.8 460.8 460.8 460.8-206.72 460.8-460.8-206.72-460.8-460.8-460.8zM358.4 614.4h51.2v-460.8h-51.2v460.8zM614.4 614.4h51.2v-460.8h-51.2v460.8z"  horiz-adv-x="1024" />

    
    <glyph glyph-name="pinglun" unicode="&#58887;" d="M512.001 0.004c-32.743 0-64.664 2.955-95.699 8.094l-224.304-136.098v226.579c-116.947 82.111-191.998 208.018-191.998 349.418 0 247.428 229.233 448.003 512.001 448.003 282.77 0 512.001-200.575 512.001-448.003 0-247.421-229.229-447.993-512.001-447.993zM512.001 831.996c-247.423 0-448.001-171.922-448.001-383.999 0-130.116 75.696-244.921 191.206-314.369l-2.019-148.433 150.639 90.546c34.703-7.387 70.804-11.743 108.174-11.743 247.426 0 448.001 171.922 448.001 383.999s-200.573 383.999-447.999 383.999zM736.001 479.999h-448.001c-17.672 0-32 14.326-32 31.998s14.328 32.002 32 32.002h448.001c17.672 0 32.002-14.33 32.002-32.002s-14.33-31.998-32.002-31.998zM352.001 351.995h320.001c17.672 0 32-14.32 32-31.998 0-17.668-14.328-31.992-32-31.992h-320.001c-17.674 0-32 14.324-32 31.992-0 17.678 14.326 31.998 32 31.998z"  horiz-adv-x="1025" />

    
    <glyph glyph-name="shangyiqu101" unicode="&#59105;" d="M174.087409 832.16002c-13.8351 0-25.03007-11.19497-25.03007-25.03007l0-846.257853c0-13.836123 11.19497-25.031093 25.03007-25.031093 13.836123 0 25.03007 11.193947 25.03007 25.031093l0 404.727835c0-14.395872 8.677637-26.985608 21.852704-35.272341l550.793538-347.114672c10.169617-6.40385 24.835641-9.777691 36.665061-9.777691 35.004235 0 66.512856 28.501124 66.512856 63.457264L874.941638 731.109556c0 34.979676-32.756031 63.431681-67.733661 63.431681-11.80793 0-25.568329-3.372817-35.737946-9.753131L222.021118 437.68469c-13.175067-8.262174-22.903639-20.874423-22.903639-35.247782L199.117478 807.12995C199.117478 820.96505 187.922509 832.16002 174.087409 832.16002zM242.701113 395.299347 795.939329 742.378204c2.222621 1.39272 8.847505 2.101871 11.268648 2.101871 6.427386 0 17.672498-5.108345 17.672498-13.370519l0-694.217065c0-11.342326-16.524348-16.379039-24.663726-11.294231L244.852102 372.712933c-5.622044 3.569292-7.333012 9.093099-7.333012 11.293207C237.51909 386.255367 237.079068 391.779174 242.701113 395.299347z"  horiz-adv-x="1024" />

    
    <glyph glyph-name="xiayiqu101" unicode="&#59160;" d="M849.911568-64.158996c13.8351 0 25.031093 11.193947 25.031093 25.031093L874.942661 807.12995c0 13.8351-11.195993 25.03007-25.031093 25.03007s-25.031093-11.19497-25.031093-25.03007l0-400.63461c0 11.95324-15.619746 22.440082-26.937512 29.528524L237.640863 786.669966c-9.850345 6.183839-18.381649 9.435906-29.822213 9.435906-33.927717 0-58.762335-27.572986-58.762335-61.476143L149.056316 33.370271c0-33.878598 24.125467-61.500703 58.053184-61.500703 11.440563 0 20.973684 3.275603 30.824029 9.486048l560.889477 350.633822c11.316743 7.089465 26.056446 17.574261 26.056446 29.5275l0-400.645866C824.880475-52.96505 836.076468-64.158996 849.911568-64.158996zM768.464581 374.351246 209.60432 23.74096c-1.906419-1.172709-0.440022-1.809205-2.493797-1.809205-4.620227 0-7.993045 3.665483-7.993045 11.438517L199.117478 734.628706c0 7.822153 3.372817 11.414981 7.993045 11.414981 2.053776 0 2.322905-0.610914 4.229325-1.784646l557.956681-350.622566c4.64274-2.90926 4.936429-7.284917 4.936429-9.655917C774.232958 381.635139 773.083785 377.259482 768.464581 374.351246z"  horiz-adv-x="1024" />

    
    <glyph glyph-name="03" unicode="&#58888;" d="M716.8 835.765c-81.318 0-153.6-36.141-204.8-96.376-51.2 60.235-123.482 96.376-204.8 96.376-153.6 0-277.082-132.518-277.082-298.165 0-45.176 6.024-87.341 21.082-126.494 0 0 12.047-36.141 21.082-57.224 117.459-256 439.718-421.647 439.718-421.647s322.259 165.647 439.718 424.659c0 0 15.059 33.129 21.082 57.224 12.047 39.153 21.082 81.318 21.082 126.494 0 162.635-123.482 295.153-277.082 295.153zM915.576 429.176c-6.024-15.059-15.059-42.165-18.071-48.188-87.341-192.753-307.2-334.306-385.506-379.482-78.306 45.176-298.165 186.729-385.506 379.482-6.024 15.059-15.059 36.141-18.071 51.2-12.047 33.129-18.071 72.282-18.071 105.412 0 132.518 99.388 237.929 216.847 237.929 60.235 0 117.459-27.106 159.624-75.294l45.176-51.2 45.176 51.2c42.165 48.188 99.388 75.294 159.624 75.294 120.471 0 216.847-105.412 216.847-234.918 0-36.141-6.024-72.282-18.071-111.435z"  horiz-adv-x="1024" />

    
    <glyph glyph-name="fenxiang" unicode="&#58942;" d="M844.8 230.4c-72.704 0-135.68-44.032-163.84-106.496l-344.064 175.616C350.72 324.608 358.4 353.28 358.4 384c0 44.544-16.384 85.504-43.52 116.736l354.304 181.248C685.568 599.552 757.76 537.6 844.8 537.6c98.816 0 179.2 80.384 179.2 179.2S943.616 896 844.8 896c-91.648 0-167.424-69.12-177.664-157.696l-394.24-201.216C245.76 553.472 213.504 563.2 179.2 563.2 80.384 563.2 0 482.816 0 384s80.384-179.2 179.2-179.2c49.664 0 94.72 20.48 126.976 53.248l360.448-184.32c-1.024-7.168-1.536-14.848-1.536-22.528 0-98.816 80.384-179.2 179.2-179.2s179.2 80.384 179.2 179.2-79.872 179.2-178.688 179.2z m0 614.4c70.656 0 128-57.344 128-128s-57.344-128-128-128-128 57.344-128 128 57.344 128 128 128zM179.2 256c-70.656 0-128 57.344-128 128s57.344 128 128 128 128-57.344 128-128-57.344-128-128-128z m665.6-332.8c-70.656 0-128 57.344-128 128s57.344 128 128 128 128-57.344 128-128-57.344-128-128-128z"  horiz-adv-x="1024" />

    
    <glyph glyph-name="liebiaoxunhuan" unicode="&#58889;" d="M905.615621 371.034468c0 132.931319-65.364876 256.560237-174.885151 331.940698v0.031008c-1.24032 0.868224-2.356608 1.922496-3.627936 2.790721l-0.248064-0.403105a30.573893 30.573893 0 0 1-18.480771 5.891522 31.256069 31.256069 0 0 1-29.953734-32.465382 30.635909 30.635909 0 0 1 14.232675-24.341284l-0.124032-0.186049a340.839996 340.839996 0 0 0 151.071002-283.289137c0-185.272833-148.559354-336.188795-332.777914-340.653948l39.194119 39.194119a30.759941 30.759941 0 0 1 11.752034 22.821892 31.225061 31.225061 0 0 1-29.953734 32.465381 30.728933 30.728933 0 0 1-23.876164-10.356673l-0.372096 0.372096-116.5901-116.652117 116.90018-113.582324 0.31008 0.31008a30.697925 30.697925 0 0 1 23.6281-13.147394 31.256069 31.256069 0 0 1 32.403366 30.015749 30.914981 30.914981 0 0 1-13.860578 26.542853l0.744192 0.7752-40.341415 39.225127c218.451398 4.434145 394.855941 183.164288 394.855941 402.669959M487.410652 711.347328l-38.139847-37.085575 0.744192-0.7752a30.759941 30.759941 0 0 1-13.860578-26.542853c0.682176-17.240451 15.162915-30.697925 32.403365-29.984741a30.697925 30.697925 0 0 1 23.628101 13.116386l0.279072-0.31008 116.869172 113.582324-116.528084 116.590101-0.372096-0.31008a30.697925 30.697925 0 0 1-23.907173 10.325665c-17.209443-0.651168-30.604901-15.193923-29.953733-32.434373a30.945989 30.945989 0 0 1 11.876066-22.883908l41.054599-41.085608C274.323638 767.626857 99.407479 589.57889 99.407479 371.00346c0-134.109624 66.450156-259.071886 177.675872-334.266299l34.728966 51.411273a340.964028 340.964028 0 0 0-150.388827 282.855026c0 182.947232 144.931417 332.343802 325.987162 340.343868"  horiz-adv-x="1024" />

    
    <glyph glyph-name="diantai" unicode="&#58913;" d="M813.1 353.2V454.3c0 166.8-134.5 302.6-299.8 302.6h-4.7c-165.3 0-299.8-135.7-299.8-302.6v-101.1c-81.5-12.3-144.3-83.4-144.3-169.1 0-94.3 76-171 169.4-171 13.6 0 24.7 11.2 24.7 24.9 0 2.3-0.3 4.4-0.9 6.5 0.3 1.4 0.4 2.9 0.4 4.4V325.4c0.3 1.5 0.5 3.1 0.5 4.8 0 1.6-0.2 3.2-0.5 4.8V454.3c0 139.4 112.3 252.8 250.4 252.8h4.7c138.1 0 250.4-113.4 250.4-252.8V335c-0.3-1.5-0.5-3.1-0.5-4.8 0-1.6 0.2-3.2 0.5-4.8v-274.1c0-2 0.2-3.9 0.7-5.8-0.7-2.4-1.1-4.9-1.1-7.5 0-13.8 11.1-24.9 24.7-24.9 93.4 0 169.4 76.7 169.4 171 0.1 85.7-62.6 156.8-144.2 169.1zM208.9 65.6C154.7 77.3 114 126 114 184.1s40.8 106.8 94.9 118.5v-237z m604.2 0v237c54.2-11.7 94.9-60.4 94.9-118.5s-40.7-106.8-94.9-118.5zM322.3 317.3c-13.6 0-24.7-11.2-24.7-24.9V49c0-13.8 11.1-24.9 24.7-24.9S347 35.3 347 49V292.4c0 13.7-11.1 24.9-24.7 24.9z m377.4 0c-13.6 0-24.7-11.2-24.7-24.9V49c0-13.8 11-24.9 24.7-24.9 13.6 0 24.7 11.2 24.7 24.9V292.4c0 13.7-11.1 24.9-24.7 24.9z"  horiz-adv-x="1024" />

    
    <glyph glyph-name="danquxunhuan" unicode="&#58989;" d="M928 419.2c-19.2 0-32-12.8-32-32v-86.4c0-108.8-86.4-198.4-198.4-198.4H201.6l41.6 38.4c6.4 6.4 12.8 16 12.8 25.6 0 19.2-16 35.2-35.2 35.2-9.6 0-22.4-3.2-28.8-9.6l-108.8-99.2c-16-12.8-12.8-35.2 0-48l108.8-96c6.4-6.4 19.2-12.8 28.8-12.8 19.2 0 35.2 12.8 38.4 32 0 12.8-6.4 22.4-16 28.8l-48 44.8h499.2c147.2 0 265.6 118.4 265.6 259.2v86.4c0 19.2-12.8 32-32 32zM96 339.2c19.2 0 32 12.8 32 32v89.6c0 112 89.6 201.6 198.4 204.8h496l-41.6-38.4c-6.4-6.4-12.8-16-12.8-25.6 0-19.2 16-35.2 35.2-35.2 9.6 0 22.4 3.2 28.8 9.6l105.6 99.2c16 12.8 12.8 35.2 0 48l-108.8 96c-6.4 6.4-19.2 12.8-28.8 12.8-19.2 0-35.2-12.8-38.4-32 0-12.8 6.4-22.4 16-28.8l48-44.8H329.6C182.4 726.4 64 608 64 457.6v-86.4c0-19.2 12.8-32 32-32zM544 224V544h-48L416 486.4l16-41.6 60.8 41.6V224z"  horiz-adv-x="1024" />

    
    <glyph glyph-name="bofang" unicode="&#58916;" d="M512 896C230.4 896 0 665.6 0 384s230.4-512 512-512 512 230.4 512 512S793.6 896 512 896z m0-981.333333C253.866667-85.333333 42.666667 125.866667 42.666667 384S253.866667 853.333333 512 853.333333s469.333333-211.2 469.333333-469.333333-211.2-469.333333-469.333333-469.333333zM672 454.4l-170.666667 113.066667c-57.6 38.4-106.666667 12.8-106.666666-57.6v-256c0-70.4 46.933333-96 106.666666-57.6l170.666667 113.066666c57.6 42.666667 57.6 106.666667 0 145.066667z"  horiz-adv-x="1024" />

    
    <glyph glyph-name="icon-" unicode="&#58953;" d="M552.96 627.3024h61.44v-40.96h-61.44zM655.36 627.3024v-40.96a245.76 245.76 0 0 0 0-491.52H368.64a245.76 245.76 0 0 0 0 491.52h122.88v40.96h-122.88a286.72 286.72 0 0 1 0-573.44h286.72a286.72 286.72 0 0 1 0 573.44zM474.9312 592.2816l-86.8352 86.8352a20.48 20.48 0 1 0 28.8768 28.8768l86.8352-86.8352a20.48 20.48 0 0 0-28.8768-28.8768zM409.6 483.9424h286.72a20.48 20.48 0 0 0 0-40.96H409.6a20.48 20.48 0 0 0 0 40.96zM409.6 340.5824h286.72a20.48 20.48 0 0 0 0-40.96H409.6a20.48 20.48 0 0 0 0 40.96zM409.6 217.7024h286.72a20.48 20.48 0 1 0 0-40.96H409.6a20.48 20.48 0 0 0 0 40.96zM327.68 483.9424a20.48 20.48 0 1 0-20.48-20.48 20.48 20.48 0 0 0 20.48 20.48zM327.68 340.5824a20.48 20.48 0 1 0-20.48-20.48 20.48 20.48 0 0 0 20.48 20.48zM327.68 217.7024a20.48 20.48 0 1 0-20.48-20.48 20.48 20.48 0 0 0 20.48 20.48z"  horiz-adv-x="1024" />

    
    <glyph glyph-name="gengduo" unicode="&#59269;" d="M512.1024-76.8512A460.83072 460.83072 0 1 0 972.86656 384a461.39392 461.39392 0 0 0-460.76416-460.8512z m0 870.4a409.6 409.6 0 1 1 409.49248-409.6 410.112 410.112 0 0 1-409.4976 409.58976zM685.69088 337.92a51.63008 51.63008 0 0 0-51.58912 51.2 49.03424 49.03424 0 0 0 15.18592 36.05504 49.90464 49.90464 0 0 0 36.352 15.06304 49.31072 49.31072 0 0 0 20.1216-4.096 54.48704 54.48704 0 0 0 16.34816-10.95168 51.97824 51.97824 0 0 0 11.09504-16.21504 48.52736 48.52736 0 0 0 4.02432-19.84512 49.536 49.536 0 0 0-15.05792-36.1728 50.24768 50.24768 0 0 0-36.48-15.03744z m-181.28896 0.05632a49.80736 49.80736 0 0 0-36.4032 15.0016 50.688 50.688 0 0 0-0.06144 72.28928 51.2 51.2 0 0 0 56.46848 10.83392 54.784 54.784 0 0 0 16.34304-10.83392 57.2672 57.2672 0 0 0 11.09504-16.20992 50.6368 50.6368 0 0 0-11.09504-56.07936 49.86368 49.86368 0 0 0-36.34688-14.99136z m-181.47328 0a51.1488 51.1488 0 1 0 0 102.29248 50.4832 50.4832 0 0 0 20.06016-4.096 55.808 55.808 0 0 0 16.2816-10.89024 52.3008 52.3008 0 0 0 10.97216-16.19456 50.176 50.176 0 0 0-10.97728-56.07936 49.86368 49.86368 0 0 0-36.34176-15.02208z"  horiz-adv-x="1024" />

    
    <glyph glyph-name="wulumuqishigongandashujuguanlipingtai-ico-" unicode="&#59371;" d="M780.16 673.92l-38.4-38.4a368 368 0 0 0 131.2-279.04A355.84 355.84 0 1 0 304 640l-38.4 38.4a396.8 396.8 0 0 1-158.72-320 413.44 413.44 0 0 1 410.88-410.88 413.44 413.44 0 0 1 410.24 408.96 426.88 426.88 0 0 1-147.84 320z m0 0M490.24 821.76h55.04v-492.8h-55.04z"  horiz-adv-x="1024" />

    
    <glyph glyph-name="zanting" unicode="&#58978;" d="M512.862059-127.999349A511.999674 511.999674 0 0 0 313.472753 855.921748a511.999674 511.999674 0 0 0 398.778611-942.840888 508.993805 508.993805 0 0 0-199.389305-41.080209z m0 943.842844C274.396457 815.843495 81.018889 622.465927 81.018889 384.000326s193.377568-431.84317 431.84317-431.84317 431.84317 194.379524 431.843169 431.84317S750.325704 815.843495 512.862059 815.843495zM395.63317 141.526899a40.078252 40.078252 0 0 0-40.078252 40.078252V563.350505a40.078252 40.078252 0 0 0 80.156505 0v-381.745354a40.078252 40.078252 0 0 0-40.078253-40.078252zM634.098772 141.526899a40.078252 40.078252 0 0 0-40.078252 40.078252V563.350505a40.078252 40.078252 0 0 0 80.156505 0v-381.745354a40.078252 40.078252 0 0 0-40.078253-40.078252z"  horiz-adv-x="1024" />

    
    <glyph glyph-name="liebiaoxiangyou" unicode="&#59441;" d="M395.636364 418.909091h512a34.909091 34.909091 0 1 0 0-69.818182H395.636364a34.909091 34.909091 0 1 0 0 69.818182zM128 733.090909a34.909091 34.909091 0 1 0 0 69.818182h791.272727a34.909091 34.909091 0 1 0 0-69.818182h-791.272727z m791.272727-698.181818a34.909091 34.909091 0 1 0 0-69.818182h-791.272727a34.909091 34.909091 0 1 0 0 69.818182h791.272727zM93.090909 538.926545L294.562909 384 93.090909 229.096727V538.926545z"  horiz-adv-x="1024" />

    
    <glyph glyph-name="bofang1" unicode="&#58938;" d="M732.502883 430.397181c-107.883492 82.3454-215.772403 164.681769-323.652282 247.014525-38.414608 29.327534-93.780555 1.929039-93.780555-46.396277v-494.029051c0-48.325316 55.365948-75.725617 93.780555-46.398084 107.87988 82.332757 215.76879 164.669126 323.652282 247.014525 30.61356 23.357989 30.61356 69.436372 0 92.794362z"  horiz-adv-x="1024" />

    
    <glyph glyph-name="yueduye-yejianmoshi" unicode="&#58912;" d="M542.331247-59.220693a431.045474 431.045474 0 0 0-21.360033 861.450146 32.467251 32.467251 0 0 0 28.408844-14.311222 32.04005 32.04005 0 0 0 1.922403-31.82645A363.120567 363.120567 0 0 1 514.563204 596.959533a367.606174 367.606174 0 0 1 367.178974-368.033375H899.471005a32.25365 32.25365 0 0 0 30.331248-46.137672 427.200668 427.200668 0 0 0-387.471006-242.009179z m-69.633708 790.321235A366.965373 366.965373 0 1 1 845.857322 166.34126 431.686275 431.686275 0 0 0 450.483104 596.959533a427.200668 427.200668 0 0 0 22.214435 135.209011z"  horiz-adv-x="1025" />

    
    <glyph glyph-name="shezhi" unicode="&#59012;" d="M870.4 677.726316L587.452632 842.105263c-45.810526 26.947368-102.4 26.947368-148.210527 0L153.6 677.726316c-45.810526-26.947368-75.452632-75.452632-75.452632-129.347369v-328.757894c0-53.894737 29.642105-102.4 75.452632-129.347369L436.547368-74.105263c24.252632-13.473684 48.505263-18.863158 75.452632-18.863158 26.947368 0 51.2 5.389474 75.452632 18.863158l282.947368 164.378947c45.810526 26.947368 75.452632 75.452632 75.452632 129.347369V548.378947c0 53.894737-29.642105 102.4-75.452632 129.347369z m37.726316-458.105263c0-40.421053-21.557895-75.452632-56.589474-97.010527l-282.947368-164.378947c-35.031579-18.863158-78.147368-18.863158-110.484211 0L172.463158 122.610526c-35.031579 18.863158-56.589474 56.589474-56.589474 97.010527V548.378947c0 40.421053 21.557895 75.452632 56.589474 97.010527l282.947368 164.378947c16.168421 10.778947 37.726316 16.168421 56.589474 16.168421 18.863158 0 37.726316-5.389474 56.589474-16.168421l282.947368-164.378947c35.031579-18.863158 56.589474-56.589474 56.589474-97.010527v-328.757894zM512 588.8c-113.178947 0-204.8-91.621053-204.8-204.8s91.621053-204.8 204.8-204.8 204.8 91.621053 204.8 204.8-91.621053 204.8-204.8 204.8z m0-371.873684c-91.621053 0-167.073684 75.452632-167.073684 167.073684 0 91.621053 75.452632 167.073684 167.073684 167.073684 91.621053 0 167.073684-75.452632 167.073684-167.073684 0-91.621053-75.452632-167.073684-167.073684-167.073684z"  horiz-adv-x="1024" />

    
    <glyph glyph-name="suiji" unicode="&#59098;" d="M779.188 206.27l0.586-0.52L912.25 84.836c12.733-11.62 13.006-31.522 0.753-43.494l-0.575-0.547-122.7-113.818c-12.109-11.233-31.027-10.517-42.254 1.6-11.049 11.923-10.531 30.445 1.03 41.737l0.568 0.54 59.455 55.155H763.3c-93.763 0-163.243 31.509-215.514 99.901-10.03 13.125-7.529 31.9 5.589 41.937 13.117 10.037 31.883 7.533 41.914-5.591 40.074-52.434 91.156-75.942 165.744-76.407l2.267-0.007h59.115l-82.942 75.702c-12.007 10.958-13.038 29.458-2.46 41.677l0.52 0.587c10.952 12.013 29.442 13.045 41.655 2.462z m0 495.437l0.586-0.522L912.25 580.274c12.733-11.622 13.006-31.523 0.753-43.495l-0.575-0.547-122.7-113.818c-12.109-11.233-31.027-10.517-42.254 1.6-11.049 11.924-10.531 30.445 1.03 41.737l0.568 0.54 81.071 75.207-0.143-0.002h-66.7c-124.498 0-225.659-99.972-227.67-224.06l-0.03-3.767c0-157.281-126.157-285.08-282.746-287.62l-4.754-0.04h-78.2c-16.513 0-29.9 13.395-29.9 29.917 0 16.287 13.007 29.533 29.194 29.909l0.706 0.008h78.2c124.498 0 225.659 99.971 227.67 224.059l0.03 3.767c0 157.282 126.157 285.081 282.746 287.621l4.754 0.039h37.146l-60.973 55.652c-12.007 10.958-13.038 29.458-2.46 41.678l0.52 0.586c10.952 12.013 29.442 13.045 41.655 2.462zM248.1 601.329c83.2 0 169.095-44.082 225.244-109.823 10.728-12.56 9.248-31.445-3.306-42.18-12.358-10.565-30.84-9.296-41.647 2.728l-0.509 0.58c-44.87 52.537-113.676 88.144-177.84 88.851l-1.942 0.01h-78.2c-16.513 0-29.9 13.395-29.9 29.917 0 16.287 13.007 29.534 29.194 29.909l0.706 0.008h78.2z"  horiz-adv-x="1024" />

    


  </font>
</defs>
</svg>
